<?xml version="1.0" encoding="UTF-8"?>
<svg id="Layer_1" xmlns="http://www.w3.org/2000/svg" version="1.1" viewBox="0 0 399.15 400.5644">
  <!-- Generator: Adobe Illustrator 29.8.3, SVG Export Plug-In . SVG Version: 2.1.1 Build 3)  -->
  <defs>
    <style>
      .st0 {
        fill: #262e3d;
      }

      .st1 {
        fill: #0f62fe;
      }
    </style>
  </defs>
  <path class="st0" d="M148.399,393.7513c-14.946-4-28.647-11.908-39.62-22.868-13.011-13.011-21.52-29.444-24.624-47.538-2.196-12.688-1.615-25.43,1.722-37.882,8.154-30.412,32.111-54.372,62.524-62.523,12.436-3.333,25.159-3.917,37.818-1.739,5.331.91,10.616,2.325,15.722,4.209,12.046,4.449,22.767,11.318,31.865,20.416,26.531,26.531,65.523,36.977,101.759,27.26,14.792-3.958,28.27-10.932,40.054-20.727,2.459-2.04,4.873-4.241,7.168-6.536,6.354-6.353,11.847-13.479,16.363-21.173-3.226,26.374-11.77,52.079-25.455,75.782-26.75,46.331-69.941,79.473-121.616,93.32-33.913,9.083-69.765,9.083-103.68-.001h0Z"/>
  <path class="st0" d="M341.8659,58.6652c24.826,24.826,42.751,55.872,51.8381,89.783,4.012,14.969,4.012,30.794.001,45.765-4.007,14.967-11.921,28.674-22.887,39.64-1.925,1.926-3.949,3.77-6.013,5.482-9.895,8.226-21.205,14.078-33.621,17.4-30.415,8.156-63.14-.61-85.409-22.878-9.102-9.103-15.968-19.822-20.404-31.859-1.878-5.069-3.289-10.334-4.2-15.663-2.197-12.693-1.616-25.433,1.722-37.886,4.781-17.834,4.781-36.69,0-54.529-4.775-17.833-14.202-34.163-27.264-47.225-10.832-10.832-23.605-19.015-37.967-24.322-3.044-1.127-6.165-2.12-9.271-2.948-8.66-2.323-17.569-3.517-26.489-3.581C146.57,5.3622,173.347-.0948,200.9399.0012c53.232.184,103.28,21.018,140.926,58.664h0Z"/>
  <path class="st1" d="M58.614,58.6642c.348-.348.699-.693,1.055-1.041,10.569-10.228,23.653-17.714,37.849-21.649l.771-.206c8.518-2.277,17.302-3.107,26.049-2.791-.619.439-1.325.694-1.88,1.249-4.506,4.504-4.961,11.27-1.84,16.502l-19.499,25.876c-6.985-4.212-16.17-3.358-22.198,2.669-7.095,7.096-7.096,18.6,0,25.696,7.096,7.095,18.6,7.095,25.695,0,5.699-5.698,6.739-14.207,3.287-21.026l20.478-27.176c.331.094.67.128,1.007.196l7.038,50.08c-3.251.727-6.351,2.312-8.882,4.843-7.095,7.095-7.095,18.599,0,25.695,7.096,7.096,18.6,7.096,25.696.001,7.0959-7.096,7.0959-18.601.0009-25.697-1.981-1.98-4.322-3.35-6.796-4.225l-7.365-52.402c.904-.553,1.867-.978,2.649-1.76,4.949-4.949,5.094-12.66.839-18.01.479.12.971.161,1.448.288,2.607.696,5.219,1.527,7.773,2.472,12.058,4.456,22.778,11.325,31.87,20.417,10.963,10.962,18.875,24.667,22.883,39.635,4.013,14.974,4.013,30.799.0009,45.765-2.548,9.501-6.594,18.339-12.021,26.403.806-5.32-.785-10.935-4.881-15.031-6.847-6.847-17.947-6.847-24.793,0-6.846,6.845-6.846,17.946,0,24.792,4.905,4.905,11.979,6.233,18.123,4.109-1.729,1.693-3.499,3.337-5.313,4.837-9.901,8.23-21.212,14.084-33.639,17.415-18.118,4.856-34.313,14.42-47.192,27.299-12.098,12.098-21.114,27.193-26.207,43.988.04-.961.341-1.863.22-2.848-1.193-9.71-10.031-16.617-19.743-15.424-1.207.148-2.37.416-3.48.788l-14.773-21.1c.989-1.891,1.609-3.994,1.329-6.272-.734-5.978-6.173-10.227-12.149-9.494-5.976.734-10.225,6.174-9.492,12.149.734,5.977,6.174,10.227,12.15,9.493.08-.01.139-.062.218-.073l14.649,20.92c-2.942,3.609-4.488,8.345-3.876,13.331,1.193,9.711,10.031,16.617,19.742,15.425,5.971-.734,10.597-4.517,13.217-9.456-3.039,13.491-3.526,27.222-1.159,40.903,2.078,12.116,6.192,23.609,12.148,34.102-21.199-15.974-39.165-36.208-52.836-59.889C.813,255.4482-6.4645,203.2722,5.798,152.9802c.276,6.622,4.219,12.826,10.726,15.588,4.991,2.119,10.375,1.701,14.865-.56l22.77,21.988c-1.498,1.668-2.801,3.575-3.736,5.778-4.234,9.974-.178,21.238,9.06,25.158,9.237,3.921,20.156-.985,24.39-10.958,1.321-3.1129,1.75-6.336,1.55-9.437l19.4-6.68c.851.746,1.733,1.473,2.832,1.94,5.543,2.353,11.942-.234,14.295-5.7751,2.353-5.542-.233-11.942-5.776-14.295-5.542-2.353-11.942.233-14.295,5.775-.442,1.043-.547,2.122-.654,3.192l-18.873,6.499c-1.827-2.752-4.348-5.021-7.539-6.376-3.995-1.696-8.28-1.657-12.228-.356l-23.99-23.167c.408-.685.837-1.355,1.158-2.11,3.823-9.006-.379-19.406-9.385-23.229-8.155-3.462-17.401-.3-21.924,7.007,9.495-31.756,26.697-60.825,50.17-84.298h0ZM178.7629,90.5012c3.726-3.726,3.725-9.766,0-13.491-3.725-3.726-9.765-3.725-13.49,0-3.725,3.725-3.725,9.765,0,13.49,3.725,3.725,9.765,3.726,13.49.001h0ZM69.173,141.0893c-3.725,3.725-3.725,9.765,0,13.49s9.765,3.725,13.49,0c3.725-3.725,3.725-9.765,0-13.49-3.725-3.725-9.765-3.725-13.49,0h0Z"/>
</svg>