<?xml version="1.0" encoding="UTF-8"?>
<svg id="Layer_1" xmlns="http://www.w3.org/2000/svg" version="1.1" viewBox="0 0 719.9999 105.1668">
  <!-- Generator: Adobe Illustrator 29.8.3, SVG Export Plug-In . SVG Version: 2.1.1 Build 3)  -->
  <defs>
    <style>
      .st0 {
        fill: #fff;
      }
    </style>
  </defs>
  <path class="st0" d="M38.9615,103.378c-3.9241-1.051-7.5211-3.127-10.402-6.004-3.4161-3.416-5.6502-7.731-6.4651-12.481-.5764-3.331-.4239-6.677.4524-9.946,2.1406-7.984,8.4303-14.275,16.4152-16.4152,3.265-.8749,6.6056-1.0283,9.929-.4564,1.3996.2388,2.7871.6103,4.1276,1.1049,3.1626,1.1681,5.9776,2.9716,8.3662,5.3606,6.9652,6.965,17.2022,9.708,26.7162,7.156,3.884-1.039,7.422-2.87,10.5161-5.441.646-.536,1.279-1.114,1.882-1.716,1.668-1.6683,3.11-3.5391,4.296-5.5591-.847,6.924-3.09,13.673-6.683,19.896-7.023,12.164-18.363,20.865-31.93,24.501-8.9035,2.385-18.3162,2.385-27.2205,0h0Z"/>
  <path class="st0" d="M89.7549,15.4021c6.518,6.5181,11.224,14.6692,13.61,23.5722,1.053,3.9302,1.053,8.0849,0,12.0154-1.052,3.9296-3.129,7.5283-6.008,10.4075-.506.5055-1.037.9896-1.579,1.4392-2.598,2.1596-5.567,3.6956-8.827,4.5686-7.986,2.141-16.577-.161-22.424-6.007-2.3895-2.3898-4.1921-5.204-5.3568-8.3643-.493-1.3308-.8636-2.7132-1.1028-4.1123-.5767-3.3325-.4243-6.6773.4522-9.9467,1.2551-4.6823,1.2551-9.6327,0-14.3163-1.2536-4.682-3.7288-8.9694-7.1581-12.3987-2.8438-2.8438-6.1976-4.9924-9.9679-6.3857-.7995-.296-1.6188-.5566-2.4341-.7739-2.2739-.61-4.6128-.9235-6.9546-.9401C38.4814,1.4079,45.5114-.0247,52.7558.0003c13.9761.0485,27.1151,5.5181,36.9991,15.4018h0Z"/>
  <path class="st0" d="M15.3888,15.4021c.0914-.0915.1837-.1819.277-.2732,2.7748-2.6854,6.2099-4.6508,9.937-5.6842l.2026-.054c2.2364-.5978,4.5425-.8156,6.8391-.7327-.1627.1153-.3481.1823-.4938.328-1.1829,1.1825-1.3023,2.9589-.483,4.3325l-5.1194,6.7936c-1.834-1.1058-4.2454-.8816-5.8278.7008-1.8628,1.8629-1.8631,4.8832-.0001,6.7462,1.8629,1.8628,4.8832,1.863,6.7461.0001,1.4961-1.4961,1.7693-3.7301.8629-5.5203l5.3765-7.1348c.0869.0246.1757.0334.2643.0515l1.8479,13.1483c-.8536.1906-1.6674.6068-2.332,1.2714-1.8627,1.8628-1.8627,4.8831,0,6.7462,1.863,1.8629,4.8835,1.8628,6.7463,0,1.8631-1.8629,1.8632-4.8835.0002-6.7465-.52-.52-1.1345-.8795-1.7842-1.1092l-1.9336-13.7581c.2375-.1451.4902-.2566.6956-.462,1.2994-1.2994,1.3373-3.3239.2201-4.7283.1258.0314.2551.042.3804.0756.6844.1826,1.3702.401,2.0405.6489,3.1658,1.17,5.9805,2.9733,8.3675,5.3604,2.8781,2.8781,4.9555,6.4763,6.0078,10.406,1.0536,3.9314,1.0535,8.0861,0,12.0153-.6687,2.4944-1.7311,4.8149-3.1557,6.9322.2115-1.3968-.2061-2.871-1.2817-3.9466-1.7974-1.7974-4.7117-1.7976-6.5093,0s-1.7973,4.7117.0001,6.5092c1.2878,1.2877,3.1451,1.6364,4.7581,1.0788-.454.4445-.9186.8761-1.3948,1.2698-2.5995,2.1609-5.5694,3.6977-8.8319,4.5722-4.7567,1.2751-9.0086,3.7859-12.3901,7.1674-3.1762,3.1764-5.5432,7.1394-6.8804,11.5484.0106-.252.0896-.489.0577-.747-.3131-2.55-2.6336-4.363-5.1834-4.05-.3168.039-.6221.109-.9137.207l-3.8786-5.5396c.2598-.4965.4225-1.0486.3491-1.6469-.1927-1.5692-1.6209-2.685-3.1897-2.4924-1.569.1927-2.6847,1.6208-2.4921,3.1897.1927,1.5692,1.6208,2.6852,3.1898,2.4922.021-.003.0366-.016.0574-.019l3.8459,5.492c-.7723.948-1.1783,2.191-1.0175,3.5.3132,2.55,2.6337,4.363,5.1832,4.05,1.5675-.193,2.782-1.186,3.4698-2.482-.7978,3.542-.9257,7.146-.3042,10.738.5456,3.181,1.6258,6.199,3.1896,8.954-5.5659-4.194-10.2828-9.507-13.8721-15.724C.2136,67.067-1.6972,53.3683,1.5222,40.1642c.0726,1.7386,1.1076,3.3674,2.8162,4.0927,1.3102.5562,2.7238.4466,3.9027-.1472l5.9781,5.773c-.3933.4378-.7354.9385-.9809,1.517-1.1116,2.6186-.0466,5.5757,2.3787,6.6051,2.425,1.0294,5.2919-.2588,6.4036-2.877.3468-.8174.4593-1.6635.4068-2.4777l5.0935-1.7539c.2234.1959.4551.387.7434.5094,1.4553.6178,3.1354-.0614,3.7532-1.5161.6176-1.4551-.0613-3.1354-1.5165-3.7531-1.455-.6177-3.1353.0612-3.7532,1.516-.1159.274-.1437.5573-.1717.8382l-4.955,1.7063c-.4795-.7224-1.1413-1.3182-1.9792-1.6739-1.0488-.4454-2.174-.4351-3.2104-.0935l-6.2985-6.0825c.1071-.1799.2197-.3556.304-.5539,1.0036-2.3644-.0995-5.095-2.4639-6.0987-2.1412-.9088-4.5686-.0786-5.7561,1.8396,2.4929-8.3374,7.0091-15.9693,13.1718-22.1319h0ZM46.9335,23.7606c.9781-.9781.9779-2.5638,0-3.5419-.978-.9781-2.5637-.978-3.5418,0-.9781.9781-.978,2.5637,0,3.5417.978.978,2.5638.9783,3.5419.0002h0ZM18.1611,37.0422c-.9781.9781-.978,2.564-.0001,3.5419.9781.9781,2.5639.9781,3.5419,0,.978-.9779.978-2.5637,0-3.5418-.9779-.9779-2.5638-.978-3.5417-.0001h0Z"/>
  <path class="st0" d="M552.9299,70.701c2.223,0,4.1501-.348,5.781-1.045,1.6301-.697,2.8751-1.712,3.735-3.047.8589-1.334,1.29-2.9047,1.29-4.7133,0-1.423-.267-2.6682-.801-3.7354-.5331-1.0673-1.3051-1.9414-2.3121-2.6238-1.008-.6816-2.224-1.1263-3.6469-1.334v.667c1.838-.4447,3.291-1.3188,4.358-2.6237,1.0679-1.3042,1.601-2.8905,1.601-4.7582,0-2.5195-.911-4.506-2.735-5.9589-1.823-1.4522-4.41-2.179-7.76-2.179h-14.363v31.3513h14.853ZM544.7029,57.3598h7.337c.712,0,1.341.0521,1.89.1556.548.1043,1.0231.2669,1.4231.4892.4.2223.7339.4892,1.0009.8005.267.3112.467.6969.6,1.1562.1329.4599.2.9713.2,1.5342,0,.5336-.067,1.0158-.2,1.4452-.133.4301-.3331.8157-.6,1.1563-.267.341-.601.616-1.0009.823-.4.207-.8751.363-1.4231.467-.549.104-1.178.155-1.89.155h-7.337v-8.1822h0ZM544.7029,44.5081h6.537c1.719,0,2.994.319,3.824.9561.83.6379,1.245,1.6086,1.245,2.9128,0,1.2751-.415,2.2311-1.245,2.8683-.83.6378-2.105.956-3.824.956h-6.537v-7.6932h0ZM575.8749,70.701v-12.0961h3.3361c.6219,0,1.1699.0598,1.645.1779.4739.1188.9119.3335,1.312.6448.4.3113.7339.7491,1,1.3119l5.47,9.9615h7.56l-5.07-9.2945c-.652-1.2451-1.4449-2.1637-2.379-2.7571-.934-.5927-2.023-.8894-3.268-.8894h-1.7789l-.4001.7115c2.312,0,4.283-.3849,5.9141-1.1562,1.6299-.7705,2.8749-1.8677,3.736-3.2907.859-1.423,1.289-3.1129,1.289-5.0695,0-3.0239-.9561-5.3808-2.868-7.0707-1.912-1.6898-4.603-2.5347-8.071-2.5347h-14.319v31.3513h6.892ZM575.8749,44.7305h6.2261c1.808,0,3.1799.371,4.114,1.1117.933.7414,1.4,1.8386,1.4,3.2908,0,1.4827-.467,2.5945-1.4,3.3352-.934.7414-2.306,1.1117-4.114,1.1117h-6.2261v-8.8494h0ZM620.8339,70.034c1.897-.741,3.535-1.831,4.9141-3.269,1.3779-1.438,2.4299-3.1496,3.157-5.1361.726-1.9859,1.09-4.1948,1.09-6.626,0-2.4604-.371-4.6839-1.112-6.6704-.741-1.9858-1.794-3.6757-3.1569-5.0695-1.364-1.3932-2.9951-2.4681-4.8921-3.224-1.8979-.756-4.018-1.134-6.359-1.134-2.313,0-4.425.371-6.337,1.1117-1.9119.7414-3.551,1.8233-4.9139,3.2463-1.3641,1.423-2.4091,3.1281-3.1351,5.114-.727,1.9865-1.09,4.1954-1.09,6.6259s.371,4.6325,1.112,6.6037c.741,1.972,1.794,3.6764,3.158,5.1144,1.3631,1.438,2.994,2.534,4.891,3.29,1.897.756,4.002,1.134,6.315,1.134,2.341,0,4.4611-.371,6.359-1.111h0ZM610.028,64.097c-1.245-.8151-2.194-1.9936-2.846-3.5354-.653-1.5412-.978-3.3943-.978-5.5587,0-2.1936.3251-4.0536.978-5.5809.652-1.5265,1.601-2.6904,2.846-3.4908,1.245-.8005,2.727-1.2007,4.447-1.2007,1.7791,0,3.283.4002,4.513,1.2007,1.23.8004,2.1721,1.9719,2.824,3.513.652,1.5419.979,3.395.979,5.5587,0,2.1346-.334,3.9731-1.001,5.5142-.667,1.5419-1.616,2.7279-2.8461,3.5579-1.231.83-2.72,1.245-4.469,1.245-1.72,0-3.202-.407-4.447-1.223h0ZM642.223,70.701v-14.3195h.089l13.608,14.3195h8.36l-16.631-17.8326-.045,2.8905,16.009-16.4092h-8.271l-13.03,13.6521h-.089v-13.6521h-6.892v31.3513h6.892ZM687.3599,70.701v-5.381h-14.8529v-7.8713h13.83v-5.3808h-13.83v-7.3374h14.8529v-5.3808h-21.479v31.3513h21.479ZM699.6769,70.701v-12.0961h3.336c.622,0,1.17.0598,1.645.1779.4741.1188.912.3335,1.312.6448.4.3113.734.7491,1,1.3119l5.4701,9.9615h7.5599l-5.07-9.2945c-.652-1.2451-1.445-2.1637-2.379-2.7571-.934-.5927-2.023-.8894-3.268-.8894h-1.779l-.4.7115c2.312,0,4.2831-.3849,5.914-1.1562,1.6301-.7705,2.8751-1.8677,3.736-3.2907.859-1.423,1.2891-3.1129,1.2891-5.0695,0-3.0239-.9561-5.3808-2.868-7.0707-1.912-1.6898-4.603-2.5347-8.071-2.5347h-14.319v31.3513h6.892ZM699.6769,44.7305h6.2261c1.8079,0,3.1799.371,4.114,1.1117.933.7414,1.4,1.8386,1.4,3.2908,0,1.4827-.467,2.5945-1.4,3.3352-.934.7414-2.306,1.1117-4.114,1.1117h-6.2261v-8.8494h0Z"/>
  <path class="st0" d="M289.583,70.701v-12.0961h3.335c.623,0,1.171.0598,1.646.1779.474.1188.911.3335,1.312.6448.4.3113.733.7491,1,1.3119l5.47,9.9615h7.56l-5.07-9.2945c-.652-1.2451-1.445-2.1637-2.379-2.7571-.934-.5927-2.023-.8894-3.268-.8894h-1.779l-.4.7115c2.312,0,4.283-.3849,5.914-1.1562,1.6299-.7705,2.875-1.8677,3.735-3.2907.86-1.423,1.29-3.1129,1.29-5.0695,0-3.0239-.956-5.3808-2.868-7.0707-1.912-1.6898-4.603-2.5347-8.071-2.5347h-14.32v31.3513h6.893ZM289.583,44.7305h6.226c1.808,0,3.179.371,4.113,1.1117.934.7414,1.401,1.8386,1.401,3.2908,0,1.4827-.467,2.5945-1.401,3.3352-.934.7414-2.305,1.1117-4.113,1.1117h-6.226v-8.8494h0ZM335.1199,70.701v-5.381h-14.853v-7.8713h13.83v-5.3808h-13.83v-7.3374h14.853v-5.3808h-21.479v31.3513h21.479ZM358.533,69.945c1.912-.801,3.402-1.942,4.469-3.425,1.067-1.482,1.601-3.186,1.601-5.1135,0-2.2526-.719-4.0689-2.157-5.4475-1.438-1.3785-3.624-2.3791-6.559-3.0017l-4.981-1.0672c-1.542-.3259-2.616-.756-3.224-1.2897-.608-.5336-.911-1.2152-.911-2.0455,0-.8005.222-1.4898.667-2.0679.444-.5781,1.104-1.0297,1.979-1.3563.874-.3259,1.9341-.4892,3.179-.4892,1.719,0,3.328.2377,4.825.7116,1.497.4745,2.838,1.2006,4.024,2.179l2.002-5.1585c-.801-.7115-1.772-1.3341-2.913-1.8677-1.142-.5336-2.379-.9339-3.713-1.2007s-2.713-.4002-4.136-.4002c-2.52,0-4.736.4079-6.648,1.2229-1.912.8157-3.4019,1.9719-4.469,3.4686-1.068,1.4974-1.601,3.2393-1.601,5.2252,0,2.3423.681,4.2322,2.045,5.6698,1.364,1.4383,3.469,2.4681,6.315,3.0906l5.025,1.0673c1.067.2078,1.927.46,2.579.756.652.2967,1.127.6448,1.423,1.045.296.4003.445.8971.445,1.4897,0,1.0083-.475,1.8386-1.423,2.4899-.949.653-2.49.979-4.625.979-1.305,0-2.579-.126-3.824-.378-1.245-.252-2.417-.608-3.513-1.0675-1.097-.4593-2.12-1.0006-3.069-1.6231l-2.001,5.3806c1.008.712,2.149,1.327,3.424,1.846,1.275.519,2.683.911,4.225,1.178,1.541.267,3.127.4,4.758.4,2.609,0,4.87-.4,6.782-1.2h0ZM389.95,70.034c1.897-.741,3.535-1.831,4.914-3.269,1.378-1.438,2.43-3.1496,3.157-5.1361.726-1.9859,1.09-4.1948,1.09-6.626,0-2.4604-.371-4.6839-1.112-6.6704-.741-1.9858-1.794-3.6757-3.157-5.0695-1.364-1.3932-2.995-2.4681-4.892-3.224-1.898-.756-4.018-1.134-6.359-1.134-2.313,0-4.425.371-6.337,1.1117-1.912.7414-3.551,1.8233-4.914,3.2463-1.364,1.423-2.409,3.1281-3.135,5.114-.727,1.9865-1.089,4.1954-1.089,6.6259s.37,4.6325,1.111,6.6037c.741,1.972,1.794,3.6764,3.158,5.1144,1.363,1.438,2.994,2.534,4.891,3.29s4.002,1.134,6.315,1.134c2.341,0,4.461-.371,6.359-1.111h0ZM379.144,64.097c-1.245-.8151-2.194-1.9936-2.846-3.5354-.653-1.5412-.978-3.3943-.978-5.5587,0-2.1936.325-4.0536.978-5.5809.652-1.5265,1.601-2.6904,2.846-3.4908,1.245-.8005,2.727-1.2007,4.447-1.2007,1.779,0,3.283.4002,4.514,1.2007,1.229.8004,2.171,1.9719,2.823,3.513.652,1.5419.979,3.395.979,5.5587,0,2.1346-.334,3.9731-1.001,5.5142-.667,1.5419-1.616,2.7279-2.846,3.5579-1.231.83-2.72,1.245-4.469,1.245-1.72,0-3.202-.407-4.447-1.223h0ZM427.9489,67.743c2.297-2.268,3.446-5.6396,3.446-10.1164v-18.2769h-6.804v18.2769c0,2.5501-.578,4.4692-1.734,5.7588-1.156,1.2896-2.817,1.9346-4.981,1.9346-2.194,0-3.869-.645-5.025-1.9346-1.156-1.2896-1.734-3.2087-1.734-5.7588v-18.2769h-6.893v18.2769c0,4.4768,1.163,7.8484,3.491,10.1164,2.327,2.268,5.714,3.402,10.161,3.402,4.417,0,7.775-1.134,10.073-3.402h0ZM444.3799,70.701v-12.0961h3.335c.623,0,1.171.0598,1.646.1779.473.1188.911.3335,1.311.6448.401.3113.734.7491,1.001,1.3119l5.47,9.9615h7.559l-5.069-9.2945c-.652-1.2451-1.445-2.1637-2.379-2.7571-.934-.5927-2.024-.8894-3.269-.8894h-1.778l-.401.7115c2.313,0,4.284-.3849,5.915-1.1562,1.63-.7705,2.875-1.8677,3.735-3.2907.86-1.423,1.29-3.1129,1.29-5.0695,0-3.0239-.956-5.3808-2.868-7.0707-1.913-1.6898-4.603-2.5347-8.072-2.5347h-14.319v31.3513h6.893ZM444.3799,44.7305h6.226c1.808,0,3.179.371,4.113,1.1117.9341.7414,1.401,1.8386,1.401,3.2908,0,1.4827-.467,2.5945-1.401,3.3352-.934.7414-2.305,1.1117-4.113,1.1117h-6.226v-8.8494h0ZM489.6049,70.167c1.927-.652,3.484-1.527,4.67-2.624l-2.179-5.4694c-1.305,1.038-2.632,1.801-3.98,2.2904-1.35.489-2.765.733-4.247.733-2.965,0-5.2109-.874-6.7369-2.6232-1.528-1.7489-2.291-4.2392-2.291-7.4709,0-3.2018.763-5.6768,2.291-7.4264,1.526-1.7489,3.772-2.6237,6.7369-2.6237,1.4821,0,2.897.2446,4.247.7338,1.348.4891,2.675,1.2528,3.98,2.2901l2.179-5.4697c-1.186-1.1263-2.743-2.0081-4.67-2.6459-1.927-.6372-3.928-.9561-6.0029-.9561-3.3511,0-6.233.6601-8.649,1.9789-2.417,1.3195-4.262,3.1872-5.537,5.6031-1.275,2.4167-1.912,5.2551-1.912,8.5159s.637,6.1076,1.912,8.5381c1.275,2.431,3.12,4.307,5.537,5.625,2.4161,1.32,5.298,1.979,8.649,1.979,2.075,0,4.0759-.326,6.0029-.978h0ZM520.289,70.701v-5.381h-14.8531v-7.8713h13.83v-5.3808h-13.83v-7.3374h14.8531v-5.3808h-21.479v31.3513h21.479Z"/>
  <path class="st0" d="M165.915,70.034c1.897-.741,3.536-1.831,4.914-3.269,1.379-1.438,2.431-3.1496,3.158-5.1361.726-1.9859,1.089-4.1948,1.089-6.626,0-2.4604-.371-4.6839-1.112-6.6704-.741-1.9858-1.794-3.6757-3.157-5.0695-1.364-1.3932-2.995-2.4681-4.892-3.224-1.897-.756-4.017-1.134-6.359-1.134-2.312,0-4.424.371-6.337,1.1117-1.912.7414-3.55,1.8233-4.914,3.2463-1.364,1.423-2.409,3.1281-3.135,5.114-.726,1.9865-1.089,4.1954-1.089,6.6259s.37,4.6325,1.112,6.6037c.74,1.972,1.793,3.6764,3.157,5.1144,1.363,1.438,2.994,2.534,4.892,3.29,1.896.756,4.002,1.134,6.314,1.134,2.342,0,4.462-.371,6.359-1.111h0ZM155.109,64.097c-1.245-.8151-2.194-1.9936-2.846-3.5354-.652-1.5412-.978-3.3943-.978-5.5587,0-2.1936.326-4.0536.978-5.5809.652-1.5265,1.601-2.6904,2.846-3.4908,1.245-.8005,2.727-1.2007,4.447-1.2007,1.779,0,3.283.4002,4.514,1.2007,1.23.8004,2.171,1.9719,2.824,3.513.651,1.5419.978,3.395.978,5.5587,0,2.1346-.334,3.9731-1.001,5.5142-.667,1.5419-1.616,2.7279-2.846,3.5579-1.23.83-2.72,1.245-4.469,1.245-1.72,0-3.202-.407-4.447-1.223h0ZM187.305,70.701v-11.2511h7.426c2.342,0,4.328-.4003,5.959-1.2007,1.63-.8005,2.868-1.9567,3.713-3.4686.845-1.512,1.268-3.3199,1.268-5.4253s-.423-3.9057-1.268-5.403c-.845-1.4967-2.083-2.6383-3.713-3.4242-1.631-.7851-3.617-1.1784-5.959-1.1784h-14.319v31.3513h6.893ZM187.305,44.7305h6.27c1.779,0,3.135.3856,4.069,1.1562.934.7713,1.401,1.9275,1.401,3.4686,0,1.5717-.467,2.7502-1.401,3.5353-.934.7859-2.29,1.1785-4.069,1.1785h-6.27v-9.3386h0ZM231.4179,70.701v-5.381h-14.853v-7.8713h13.83v-5.3808h-13.83v-7.3374h14.853v-5.3808h-21.479v31.3513h21.479ZM243.246,70.701v-21.5236h-1.2l16.854,21.5236h5.114v-31.3513h-6.448v21.4787h1.245l-16.854-21.4787h-5.114v31.3513h6.403Z"/>
</svg>